#define aberto_width 19
#define aberto_height 5
static unsigned char aberto_bits[] = {
   0x00, 0x18, 0x00, 0x00, 0x06, 0x00, 0xa0, 0x21, 0x00, 0x7f, 0xf0, 0x07,
   0x20, 0x20, 0x00 };
