#define aberto2_width 24
#define aberto2_height 20
static unsigned char aberto2_bits[] = {
   0x00, 0x00, 0x00, 0x00, 0x00, 0x00, 0x00, 0x00, 0x00, 0x00, 0x00, 0x00,
   0x00, 0x00, 0x00, 0x00, 0x00, 0x00, 0x00, 0x00, 0x00, 0xf0, 0xff, 0x0f,
   0xf0, 0xff, 0x0f, 0xf0, 0xff, 0x0f, 0x00, 0x00, 0x00, 0x00, 0x00, 0x00,
   0x00, 0x00, 0x00, 0x70, 0x00, 0x0e, 0xff, 0x00, 0xff, 0xff, 0x00, 0xff,
   0xff, 0x00, 0xff, 0x70, 0x00, 0x0e, 0x00, 0x00, 0x00, 0x00, 0x00, 0x00 };
