#define fechado_width 19
#define fechado_height 5
static unsigned char fechado_bits[] = {
   0x00, 0x00, 0x00, 0x00, 0x00, 0x00, 0x20, 0x20, 0x00, 0xff, 0xff, 0x07,
   0x20, 0x20, 0x00 };
