#define fechado2_width 24
#define fechado2_height 20
static unsigned char fechado2_bits[] = {
   0x00, 0x08, 0x00, 0x00, 0x0c, 0x00, 0x00, 0x0c, 0x00, 0x00, 0x0e, 0x00,
   0x00, 0xfe, 0x00, 0x00, 0x7f, 0x00, 0x00, 0x70, 0x00, 0x00, 0x30, 0x00,
   0x00, 0x30, 0x00, 0x00, 0x10, 0x00, 0x00, 0x00, 0x00, 0xf0, 0xff, 0x0f,
   0xf0, 0xff, 0x0f, 0xf0, 0xff, 0x0f, 0xff, 0x00, 0xff, 0xff, 0x00, 0xff,
   0xff, 0x00, 0xff, 0x70, 0x00, 0x0e, 0x00, 0x00, 0x00, 0x00, 0x00, 0x00 };
