#define mao_width 10
#define mao_height 16
static unsigned char mao_bits[] = {
   0x10, 0x00, 0x50, 0x00, 0x54, 0x00, 0x54, 0x00, 0x55, 0x00, 0x55, 0x00,
   0x7d, 0x00, 0x7d, 0x02, 0x7f, 0x03, 0x7f, 0x03, 0xff, 0x03, 0xff, 0x03,
   0xff, 0x01, 0xff, 0x01, 0xff, 0x00, 0x7c, 0x00 };
