#define perigo_width 20
#define perigo_height 20
static unsigned char perigo_bits[] = {
   0x00, 0x06, 0x00, 0x00, 0x06, 0x00, 0x00, 0x0f, 0x00, 0x00, 0x0f, 0x00,
   0x80, 0x1f, 0x00, 0x80, 0x1f, 0x00, 0xc0, 0x39, 0x00, 0xc0, 0x39, 0x00,
   0xe0, 0x79, 0x00, 0xe0, 0x79, 0x00, 0xf0, 0xf9, 0x00, 0xf0, 0xf9, 0x00,
   0xf8, 0xf9, 0x01, 0xf8, 0xff, 0x01, 0xfc, 0xff, 0x03, 0xfc, 0xf9, 0x03,
   0xfe, 0xf9, 0x07, 0xfe, 0xff, 0x07, 0xff, 0xff, 0x0f, 0xff, 0xff, 0x0f };
