#define remote_width 18
#define remote_height 20
static unsigned char remote_bits[] = {
   0x02, 0x03, 0x01, 0x21, 0x13, 0x02, 0x11, 0x23, 0x02, 0x11, 0x23, 0x02,
   0x11, 0x23, 0x02, 0x21, 0x13, 0x02, 0x02, 0x03, 0x01, 0x80, 0x07, 0x00,
   0xfc, 0xff, 0x00, 0x3e, 0xf3, 0x01, 0xfe, 0xff, 0x01, 0xc7, 0x8f, 0x03,
   0xab, 0x27, 0x03, 0x6d, 0x73, 0x02, 0x01, 0xfb, 0x02, 0x6d, 0x73, 0x02,
   0xab, 0x27, 0x03, 0xc7, 0x8f, 0x03, 0xfe, 0xff, 0x01, 0xfc, 0xff, 0x00 };
