#define wifi_width 16
#define wifi_height 12
static unsigned char wifi_bits[] = {
   0xe0, 0x07, 0x18, 0x18, 0x06, 0x60, 0xc1, 0x83, 0x30, 0x0c, 0x0c, 0x30,
   0xc0, 0x03, 0x30, 0x0c, 0x00, 0x00, 0x80, 0x01, 0x80, 0x01, 0x80, 0x01 };
